<svg width="79" height="233" viewBox="0 0 79 233" fill="none" xmlns="http://www.w3.org/2000/svg">
<path d="M47.3414 32.9742C47.3414 37.304 43.8305 40.8131 39.5009 40.8131C35.1712 40.8131 31.6603 37.3038 31.6603 32.9742C31.6603 28.6432 35.1712 25.1337 39.5009 25.1337C43.8305 25.1337 47.3414 28.643 47.3414 32.9742Z" fill="#fff"/>
<path d="M39.5001 0.30594C17.8521 0.30594 0.300674 17.859 0.300674 39.5121V104.835C0.300674 126.486 17.8521 144.039 39.5001 144.039C61.1482 144.039 78.6996 126.486 78.6996 104.833V39.5104C78.6996 17.859 61.1482 0.30426 39.5001 0.30426V0.30594ZM73.4743 104.836C73.4743 123.57 58.233 138.814 39.5001 138.814C20.7673 138.814 5.5259 123.571 5.5259 104.836V39.5129C5.5259 20.7788 20.7673 5.5341 39.5001 5.5341C58.233 5.5341 73.4743 20.7772 73.4743 39.5129V104.836Z" fill="#fff"/>
<path d="M74.2382 155.261L39.4996 190L4.76097 155.261C3.73885 154.239 2.08674 154.239 1.06627 155.261C0.0441546 156.283 0.0441546 157.935 1.06627 158.956L37.6521 195.541C38.1606 196.052 38.83 196.308 39.4994 196.308C40.1687 196.308 40.8381 196.052 41.3467 195.541L77.9325 158.956C78.9546 157.934 78.9546 156.281 77.9325 155.261C76.912 154.239 75.2599 154.239 74.2378 155.261H74.2382Z" fill="#fff"/>
<path d="M74.2382 191.847L39.4996 226.586L4.76097 191.847C3.73885 190.825 2.08674 190.825 1.06627 191.847C0.0441546 192.869 0.0441546 194.521 1.06627 195.542L37.6521 232.128C38.1606 232.638 38.83 232.895 39.4994 232.895C40.1687 232.895 40.8381 232.64 41.3467 232.129L77.9325 195.544C78.9546 194.521 78.9546 192.869 77.9325 191.849C76.912 190.825 75.2599 190.825 74.2378 191.847H74.2382Z" fill="#fff"/>
</svg>
